<?xml version="1.0" encoding="UTF-8"?><svg id="Layer_1" xmlns="http://www.w3.org/2000/svg" viewBox="0 0 250 250"><path d="M141.08,81.94v40.28h21.27v-40.07c-1.39-.83-2.85-1.48-4.06-2.46-3.75-3.02-4.89-8.15-2.93-12.52,1.98-4.41,6.65-6.94,11.44-6.21,4.7,.72,8.47,4.69,8.97,9.44,.5,4.73-2.22,9.31-6.68,11.01-1.05,.4-1.31,.9-1.31,1.95,.03,27.79,.03,55.58,0,83.37,0,1,.26,1.47,1.25,1.85,5.05,1.94,7.77,7.34,6.45,12.58-1.32,5.22-6.4,8.62-11.87,7.92-5.11-.65-9.12-5.24-9.2-10.51-.06-4.34,2.68-8.39,6.82-10.04,.38-.15,.76-.28,1.18-.44v-40.28h-21.37v1.36c0,12.54,0,25.08-.02,37.61,0,.91,.17,1.39,1.14,1.75,4.88,1.81,7.64,6.8,6.72,11.97-.85,4.81-5.2,8.51-10.13,8.64-5.16,.14-9.64-3.26-10.77-8.17-1.17-5.06,1.27-10.17,6.03-12.19,1.37-.58,1.71-1.24,1.7-2.65-.06-12.22-.04-24.44-.04-36.66v-1.69h-21.36v1.51c0,12.45,.01,24.89-.02,37.34,0,1.02,.2,1.55,1.28,1.96,4.77,1.82,7.53,6.92,6.56,11.8-1.03,5.17-5.27,8.72-10.44,8.75-5.08,.03-9.54-3.55-10.55-8.48-1.04-5.08,1.69-10.16,6.51-12.12,.41-.17,.83-.32,1.25-.48v-40.38h-1.49c-5.43,0-10.86,0-16.3,0-5.65,0-8.91-3.28-8.92-8.95,0-11.77-.02-23.54,.02-35.3,0-1.08-.25-1.63-1.35-2.06-5.06-2-7.71-7.41-6.33-12.64,1.37-5.16,6.39-8.48,11.82-7.82,5.1,.62,9.13,5.21,9.23,10.49,.08,4.18-2.54,8.21-6.43,9.89-.5,.21-1.01,.4-1.62,.64,0,.42,0,.86,0,1.3,0,11.81,0,23.63,0,35.44,0,2.79,.84,3.62,3.66,3.62,5.39,0,10.77,0,16.16,0,.49,0,.97,0,1.53,0v-40.36c-.65-.28-1.35-.55-2.03-.89-4.49-2.23-6.83-7.27-5.62-12.07,1.28-5.05,5.67-8.31,10.94-8.13,4.96,.18,9.1,3.87,10.01,8.94,.85,4.74-1.84,9.71-6.43,11.51-1.22,.48-1.46,1.09-1.46,2.26,.04,12.31,.02,24.62,.02,36.93,0,.54,0,1.07,0,1.7h21.29c.02-.48,.07-.91,.07-1.35,0-12.54-.01-25.08,.03-37.61,0-1.03-.31-1.45-1.27-1.83-5.12-2.02-7.8-7.46-6.38-12.73,1.39-5.15,6.45-8.46,11.86-7.76,5.11,.67,9.1,5.25,9.16,10.54,.05,4.2-2.57,8.19-6.47,9.86-.5,.21-1,.4-1.52,.61Zm-61.52-10.45c-.02,2.96,2.35,5.37,5.28,5.4,2.91,.02,5.36-2.4,5.38-5.32,.02-2.93-2.37-5.36-5.31-5.39-2.94-.03-5.34,2.35-5.35,5.32Zm90.87,.09c.02-2.97-2.31-5.37-5.27-5.4-2.92-.03-5.37,2.38-5.39,5.3-.02,2.93,2.36,5.37,5.29,5.41,2.93,.04,5.35-2.35,5.37-5.31Zm0,106.88c-.02-2.96-2.42-5.35-5.36-5.32-2.92,.03-5.32,2.46-5.31,5.39,.02,2.92,2.46,5.34,5.38,5.32,2.95-.02,5.3-2.42,5.28-5.39Zm-53.49-106.95c0-2.96-2.41-5.35-5.34-5.33-2.93,.02-5.34,2.45-5.33,5.37,.01,2.91,2.46,5.35,5.37,5.34,2.93-.01,5.32-2.43,5.31-5.38Zm0,107.01c.01-2.95-2.36-5.37-5.3-5.39-2.91-.02-5.36,2.41-5.38,5.33-.02,2.92,2.39,5.36,5.32,5.38,2.93,.03,5.34-2.37,5.35-5.33Zm26.78-107.06c-.03-2.92-2.51-5.33-5.41-5.29-2.95,.04-5.29,2.46-5.26,5.42,.03,2.94,2.48,5.34,5.39,5.3,2.92-.05,5.32-2.51,5.29-5.42Zm0,107.08c.03-2.91-2.37-5.37-5.3-5.41-2.92-.04-5.35,2.36-5.38,5.3-.03,2.96,2.32,5.37,5.27,5.41,2.91,.04,5.38-2.38,5.41-5.3Z"/></svg>