<?xml version="1.0" encoding="UTF-8"?><svg id="Layer_1" xmlns="http://www.w3.org/2000/svg" viewBox="0 0 250 250"><path d="M210.9,164.25c-.21,.69-.42,1.37-.63,2.06-1.65,5.53-6.41,9.56-12.15,10.07-2.5,.22-5.03,.25-7.54,.12-4.95-.27-8.19-3.78-8.29-8.77-.01-.78,0-1.56,0-2.5h-5.73c0,2.28,.01,4.55,0,6.82-.01,1.79,.07,3.59-.12,5.36-.48,4.52-3.93,7.63-8.48,7.66-7.27,.05-14.54,.02-21.81,.02-12.64,0-25.28-.04-37.91,.03-3.05,.02-5.51-.96-7.63-3.14-4.1-4.2-8.32-8.29-12.42-12.49-1.1-1.13-2.29-1.62-3.86-1.58-3.41,.08-6.82,.03-10.23,.02-5.65-.02-9.17-3.55-9.18-9.24-.01-4.46,0-8.93,0-13.51h-8.64c0,3.13,.02,6.24,0,9.35-.01,1.28,.05,2.6-.22,3.84-.97,4.41-4.95,7.11-9.52,6.58-4.21-.49-7.39-4.1-7.4-8.58-.03-13.64-.01-27.29-.01-40.93,0-1.68-.04-3.36,.02-5.03,.15-4.68,3.92-8.3,8.6-8.29,4.69,.01,8.43,3.63,8.51,8.35,.07,3.79,.01,7.58,.01,11.51h8.65c0-3.42-.02-6.82,.01-10.21,.01-1.11,.03-2.25,.31-3.32,.96-3.72,4.09-6.21,7.92-6.31,2.74-.07,5.48,0,8.22-.03,2.39-.02,3.32-.88,3.6-3.26,.6-5.2,3.82-8.14,9.03-8.19,3.97-.03,7.94,0,11.91,0,.6,0,1.19,0,1.87,0v-8.61c-.63,0-1.22,0-1.82,0-4.08,0-8.16,.03-12.25,0-5.03-.04-8.8-3.79-8.76-8.65,.04-4.8,3.75-8.47,8.73-8.48,18.96-.03,37.91-.03,56.87,0,5.07,0,8.79,3.72,8.77,8.61-.03,4.87-3.78,8.5-8.88,8.53-4.58,.03-9.16,0-13.88,0v8.53c.57,.03,1.17,.07,1.77,.07,3.08,0,6.15-.03,9.23,.01,5.36,.07,8.9,3.64,8.95,8.98,.02,1.68-.02,3.36,.01,5.03,.04,2.01,1.1,3.1,3.13,3.14,2.63,.05,5.26,0,7.88,.02,5.36,.04,8.92,3.53,9.01,8.92,.06,3.97,.01,7.94,.02,11.91,0,.61,0,1.21,0,1.92h5.76c0-1.13-.04-2.18,0-3.23,.19-4.08,3.21-7.58,7.27-7.97,2.93-.28,5.95-.32,8.87,.04,6.1,.74,10.61,5.03,12.08,11.02,.08,.31,.23,.6,.34,.9v32.88Zm-73.25,15.12c9.62,0,19.23,0,28.85,0,3.59,0,4.33-.73,4.33-4.3,0-16.16,0-32.31,0-48.47,0-3.19,.02-6.37-.01-9.56-.03-2.49-1.02-3.46-3.47-3.48-2.68-.02-5.37,.05-8.05-.02-4.84-.13-8.4-3.76-8.49-8.58-.03-1.56,0-3.13,0-4.7-.01-2.98-.9-3.87-3.92-3.87-17.44,0-34.88,0-52.33,0-2.94,0-3.57,.58-3.95,3.54-.61,4.78-4.01,7.84-8.84,7.9-2.52,.03-5.03,0-7.55,0-2.61,.01-3.58,.94-3.58,3.5,0,15.76,0,31.53,0,47.29,0,2.57,.99,3.57,3.52,3.59,3.41,.02,6.82,.09,10.23-.02,3.19-.11,5.7,1.03,7.91,3.3,4.04,4.18,8.23,8.22,12.3,12.37,1.06,1.08,2.19,1.54,3.71,1.53,9.78-.05,19.57-.02,29.35-.02Zm50.38-31.4c0,6.49-.01,12.97,0,19.46,0,2.3,.97,3.31,3.23,3.36,2.07,.04,4.15,.09,6.2-.1,4.3-.39,7.63-3.82,7.68-8.12,.1-9.78,.1-19.57,0-29.35-.05-4.54-3.8-8.08-8.34-8.21-1.68-.05-3.35-.02-5.03-.01-2.81,0-3.73,.91-3.74,3.69,0,6.43,0,12.86,0,19.29ZM122.27,70.61c-9.16,0-18.32,0-27.48,0-.56,0-1.13-.05-1.67,.04-1.36,.23-2.22,1.02-2.38,2.42-.17,1.45,.44,2.52,1.83,3.02,.51,.18,1.09,.22,1.64,.22,18.66,.01,37.31,.01,55.97,0,.6,0,1.24-.08,1.79-.32,1.28-.56,1.79-1.64,1.59-3-.19-1.31-1.02-2.09-2.29-2.33-.54-.1-1.11-.06-1.67-.06-9.1,0-18.21,0-27.31,0Zm-71.72,62.92c0-7.21,0-14.42,0-21.63,0-.5,.03-1.01-.03-1.51-.16-1.46-1.23-2.47-2.65-2.54-1.41-.08-2.64,.81-2.95,2.21-.11,.48-.09,1-.09,1.5,0,14.7,0,29.4,0,44.09,0,.55,0,1.14,.17,1.65,.46,1.39,1.47,2.08,2.94,1.96,1.48-.12,2.32-1,2.56-2.44,.08-.49,.04-1,.04-1.51,0-7.27,0-14.53,0-21.8Zm63.11-51.41v8.44h16.97v-8.44h-16.97Zm68.49,77.11v-22.7h-5.47v22.7h5.47Zm-125.79-20h8.43v-11.22h-8.43v11.22Z"/></svg>