<?xml version="1.0" encoding="UTF-8"?><svg id="Layer_1" xmlns="http://www.w3.org/2000/svg" viewBox="0 0 250 250"><path d="M202.5,109.97c-10.72-34.03-41.65-56.9-76.97-56.9-10.53,0-20.89,2.06-30.81,6.11-15.69,6.43-28,15.81-36.58,27.9-8.51,11.99-13.42,26.72-14.6,43.8-1.42,20.56,5.03,39.58,19.15,56.55,1.16,1.39,2.19,2.04,3.21,2.04,.88,0,1.86-.47,3-1.42,3.46-2.91,6.97-5.88,10.37-8.75,1.67-1.42,3.34-2.83,5.02-4.24,3.09-2.61,3.21-3.93,.65-7.07-9.81-12.02-13.68-25.76-11.5-40.84,3.66-25.35,25.78-44.46,51.42-44.46,5.55,0,11.07,.89,16.41,2.65,5.73,1.88,11.14,4.8,16.07,8.66,.97,.76,1.92,1.15,2.78,1.15,.92,0,1.75-.45,2.48-1.34,.67-.82,.96-1.65,.87-2.48-.1-.93-.7-1.86-1.73-2.68-8.96-7.09-19.34-11.34-30.84-12.61-.81-.1-2.4-.87-2.44-1.96-.09-3.32-.08-6.68-.08-9.95,0-.89,0-1.78,0-2.67v-.97l.97,.02c22.03,.56,50.23,14.22,63.55,43.49,13.25,29.13,5.01,59.21-9.06,76.1l-.62,.74-.73-.62-2.1-1.76c-2.37-1.99-4.75-4-7.13-6-.24-.2-.47-.42-.72-.65-.11-.1-.23-.22-.35-.33l-.6-.55,.46-.68c.26-.39,.51-.77,.77-1.15,.58-.86,1.13-1.67,1.67-2.51,.86-1.37,1.62-2.6,2.3-3.9,7.39-14.07,9-28.96,4.79-44.26-.74-2.68-2.16-3.02-3.3-3.03-1.15,0-2.13,.44-2.78,1.22-.7,.83-.94,1.96-.72,3.19,.18,.95,.38,1.92,.57,2.87,.64,3.1,1.29,6.3,1.45,9.52,.68,13.46-3.47,25.66-12.31,36.25-2.06,2.47-1.9,4.09,.63,6.21,2.22,1.88,4.44,3.76,6.67,5.64,3.11,2.61,6.21,5.24,9.32,7.85,1.01,.85,1.96,1.27,2.84,1.27,1.02,0,2.01-.59,2.97-1.76,19.16-23.58,24.4-49.72,15.58-77.68Zm-124.67,60.27l.53,.72-.68,.58-5.17,4.39-5.33,4.52-.76,.65-.61-.8c-9.26-12.2-14.28-25.59-15.34-40.96l-.08-1.01h15.62l.08,.87c1,11.6,4.83,21.75,11.74,31.05Zm2.27-73.79c-5.58,6.6-9.48,13.79-11.59,21.37-.92,3.32-1.49,6.82-2.03,10.2l-.12,.74c-.21,1.32-.69,2.53-2.72,2.53h-.11c-1.51-.04-3.16-.05-5.19-.05-1.11,0-2.22,0-3.35,0-1.16,0-2.34,0-3.54,0h-1.02l.08-1.02c1.15-16.92,7.35-31.97,18.44-44.77l.67-.77,.72,.72,4.33,4.34,5.38,5.39,.62,.63-.57,.67Zm39.14-20.34c-12.07,1.14-23.03,5.77-32.55,13.75l-.67,.56-.62-.62-8.46-8.48-1.25-1.25-.72-.72,.77-.67c12.64-10.96,27.62-17.14,44.48-18.38l.92-.07,.09,.92c.03,.22,.05,.43,.07,.62,.05,.42,.1,.82,.1,1.24,0,1.48,0,2.95,0,4.42,0,2.03,0,4.07,0,6.1,0,.65,.02,2.35-2.19,2.56Z"/><path d="M124.35,160.56c4.76,0,8.27-1.8,11.41-5.83,12.82-16.36,25.76-33.06,38.28-49.21l2.34-3.02c.46-.58,.79-1.32,.91-1.97,.26-1.4-.31-2.56-1.66-3.4-.57-.35-1.12-.52-1.69-.52-.72,0-1.47,.27-2.3,.83-2.62,1.77-5.26,3.53-7.9,5.29-4.88,3.26-9.93,6.64-14.83,10.02-11.87,8.17-22.55,15.56-33.14,23.17-4.74,3.4-6.54,9.6-4.48,15.43,1.95,5.5,7.19,9.21,13.05,9.22Zm-4.44-19.08c3.41-2.73,6.94-5.21,10.56-7.72,5.16-3.59,10.42-7.2,15.51-10.69,2.14-1.47,4.27-2.93,6.4-4.4l.62-.42,.55,.5,.17,.14,.16,.15,.67,.59-.54,.71c-.92,1.2-1.85,2.4-2.77,3.6-2.03,2.63-4.12,5.35-6.22,8l-1.76,2.24c-4.36,5.53-8.86,11.25-13.39,16.8-1.46,1.78-3.38,2.77-5.4,2.77-1.72,0-3.35-.69-4.74-1.98-1.62-1.51-2.47-3.42-2.39-5.41,.08-1.88,.99-3.6,2.57-4.88Z"/><path d="M161.54,190.03c-5.7,0-11.4,0-17.11,0h-49.62c-.7,0-1.36,0-2.03,0h-1.98c-1.28,0-2.31,0-3.24,.04-2.01,.06-3.22,1.32-3.23,3.36,0,1.07,.27,1.9,.84,2.47,.69,.71,1.84,1.06,3.4,1.06h73.09c.16,0,.31,0,.48,0,1.14-.09,2.05-.5,2.63-1.18,.58-.7,.82-1.67,.71-2.8-.13-1.25-.68-2.91-3.93-2.91Z"/><path d="M106.27,176.65c0,1.04,.28,1.86,.84,2.44,.68,.68,1.79,1.05,3.22,1.05,1.92,0,3.83,0,5.75,0h13.11c1.45,0,2.9,0,4.35,0,2.03,0,4.05,0,6.08-.02,1.27,0,2.29-.33,2.95-.94,.64-.58,.95-1.44,.95-2.53-.02-2.99-2.5-3.44-3.97-3.44-4.87-.02-9.76-.02-14.63-.02s-9.78,0-14.68,.02c-1.47,0-3.96,.45-3.99,3.42Z"/></svg>