<?xml version="1.0" encoding="UTF-8"?><svg id="Layer_1" xmlns="http://www.w3.org/2000/svg" viewBox="0 0 250 250"><path d="M187.73,67.67c-3.95-3.91-7.87-7.87-11.83-11.78-.52-.51-1.16-.98-1.84-1.24-1.33-.5-2.75,.07-3.54,1.24-.86,1.28-.74,2.81,.49,4.11,1.79,1.89,3.66,3.71,5.51,5.55,1.62,1.61,3.26,3.2,4.97,4.87-3.47,3.46-6.74,6.77-10.06,10.04-1.03,1.01-1.54,2.18-1.53,3.61,.02,2.76-.02,5.51,.01,8.27,.04,4.47,1.66,8.19,5.3,10.92,2.19,1.64,4.72,2.33,7.55,2.52v16.72c0,12.33,0,24.66,0,36.98,0,2.46-1.19,3.95-3.14,4-1.98,.05-3.23-1.48-3.25-4.01-.01-1.7,.03-3.41-.01-5.11-.16-6.16-4.17-10.07-10.32-10.1-.83,0-1.65,0-2.53,0v-2.03c0-26.81,0-53.62,0-80.43,0-3.7-.99-7-3.56-9.76-2.14-2.29-4.88-3.4-7.88-4.02H85.01c-2.01,.83-4.23,1.36-5.99,2.55-4.03,2.72-5.38,6.86-5.37,11.6,.02,37.39,.01,74.77,0,112.16,0,.67-.06,1.35-.1,2-7.5,.35-13.08,6.24-12.71,14.09,.12,2.55,0,5.11,.02,7.67,.03,2.76,1.18,3.91,3.97,3.91,35.84,0,71.68,0,107.52,0,2.74,0,3.97-1.19,4.01-3.9,.04-2.81,.05-5.61,0-8.42-.11-5.47-2.44-9.66-7.46-12.05-1.63-.77-3.49-1.05-5.31-1.57v-25.4c.86,0,1.65-.02,2.43,0,2.67,.06,3.85,1.22,3.88,3.87,.02,1.7,0,3.41,0,5.11,.03,3.03,.89,5.74,3.25,7.78,3.05,2.65,6.56,3.25,10.22,1.65,3.91-1.71,5.78-4.93,5.78-9.21,0-29.57,0-59.14,.01-88.7,0-1.4-.45-2.51-1.44-3.48Zm-5.03,31.52c-3.35,.02-6.08-2.38-6.25-5.64-.14-2.75-.08-5.51-.06-8.26,0-.36,.15-.81,.39-1.07,1.86-1.94,3.77-3.84,5.92-6.02v20.99ZM82.06,56.25c1.38-1.34,3.08-1.84,4.94-1.84,21.06,0,42.11-.02,63.17,.01,4.48,0,6.94,2.73,6.95,7.44,0,19.45,0,38.9,0,58.34v56.03H80.11v-1.57c0-37.64,0-75.29-.01-112.93,0-2.09,.41-3.97,1.96-5.48Zm87.74,132.04c.18,2.34,.03,4.7,.03,7.18H67.32c0-2.4-.15-4.76,.04-7.09,.25-3.02,2.75-5.3,5.78-5.59,.45-.04,.9-.04,1.35-.04,29.42,0,58.85,0,88.27,0,3.88,0,6.79,2.21,7.04,5.54Z"/><path d="M90.84,105.79c9.27,0,18.54,0,27.8,0,9.27,0,18.54,0,27.8,0,3.17,0,4.21-1.05,4.21-4.25,0-12.17,0-24.34,0-36.52,0-3.09-1.06-4.16-4.15-4.16-18.59,0-37.17,0-55.76,0-3.17,0-4.24,1.08-4.24,4.25,0,12.12,0,24.24,0,36.37,0,3.26,1.05,4.31,4.33,4.31Zm2.21-38.44h51.18v31.94h-51.18v-31.94Z"/></svg>