<svg width="15" height="12" viewBox="0 0 15 12" xmlns="http://www.w3.org/2000/svg">
<path d="M0 0.75C0 0.551088 0.0790176 0.360322 0.21967 0.21967C0.360322 0.0790178 0.551088 0 0.75 0H10.5C10.6989 0 10.8897 0.0790178 11.0303 0.21967C11.171 0.360322 11.25 0.551088 11.25 0.75C11.25 0.948912 11.171 1.13968 11.0303 1.28033C10.8897 1.42098 10.6989 1.5 10.5 1.5H0.75C0.551088 1.5 0.360322 1.42098 0.21967 1.28033C0.0790176 1.13968 0 0.948912 0 0.75ZM14.25 5.25H0.75C0.551088 5.25 0.360322 5.32902 0.21967 5.46967C0.0790176 5.61032 0 5.80109 0 6C0 6.19891 0.0790176 6.38968 0.21967 6.53033C0.360322 6.67098 0.551088 6.75 0.75 6.75H14.25C14.4489 6.75 14.6397 6.67098 14.7803 6.53033C14.921 6.38968 15 6.19891 15 6C15 5.80109 14.921 5.61032 14.7803 5.46967C14.6397 5.32902 14.4489 5.25 14.25 5.25ZM7.5 10.5H0.75C0.551088 10.5 0.360322 10.579 0.21967 10.7197C0.0790176 10.8603 0 11.0511 0 11.25C0 11.4489 0.0790176 11.6397 0.21967 11.7803C0.360322 11.921 0.551088 12 0.75 12H7.5C7.69891 12 7.88968 11.921 8.03033 11.7803C8.17098 11.6397 8.25 11.4489 8.25 11.25C8.25 11.0511 8.17098 10.8603 8.03033 10.7197C7.88968 10.579 7.69891 10.5 7.5 10.5Z"/>
</svg>
